<svg xmlns="http://www.w3.org/2000/svg" width="56" height="56" viewBox="0 0 56 56">
  <g id="Group_31" data-name="Group 31" transform="translate(1069 158)">
    <path id="Icon_material-slow-motion-video" data-name="Icon material-slow-motion-video" d="M24.544,18.182l-5.953-4.469V31.278l5.953-4.469L30.3,22.495Zm0,0-5.953-4.469V31.278l5.953-4.469L30.3,22.495Zm0,0-5.953-4.469V31.278l5.953-4.469L30.3,22.495Zm-4-11.164V3.075A19.418,19.418,0,0,0,10.16,7.388l2.771,2.791a15.5,15.5,0,0,1,7.612-3.162ZM10.179,12.931,7.388,10.16A19.418,19.418,0,0,0,3.075,20.543H7.018A15.5,15.5,0,0,1,10.179,12.931ZM7.018,24.447H3.075A19.418,19.418,0,0,0,7.388,34.83l2.791-2.791a15.356,15.356,0,0,1-3.162-7.592ZM10.16,37.6a19.481,19.481,0,0,0,10.383,4.313V37.972a15.5,15.5,0,0,1-7.612-3.162L10.16,37.6ZM42.012,22.495a19.547,19.547,0,0,1-17.468,19.42V37.972a15.612,15.612,0,0,0,0-30.955V3.075A19.547,19.547,0,0,1,42.012,22.495Z" transform="translate(-1063.058 -152.066)" fill="#fff"/>
    <g id="Rectangle_15" data-name="Rectangle 15" transform="translate(-1069 -158)" fill="none" stroke="#707070" stroke-width="1">
      <rect width="56" height="56" rx="14" stroke="none"/>
      <rect x="0.5" y="0.5" width="55" height="55" rx="13.5" fill="none"/>
    </g>
  </g>
</svg>
